<?xml version="1.0" encoding="utf-8" standalone="no"?>
<!DOCTYPE svg PUBLIC "-//W3C//DTD SVG 1.1//EN"
  "http://www.w3.org/Graphics/SVG/1.1/DTD/svg11.dtd">
<svg xmlns:xlink="http://www.w3.org/1999/xlink" width="720pt" height="720pt" viewBox="0 0 720 720" xmlns="http://www.w3.org/2000/svg" version="1.1">
 <metadata>
  <rdf:RDF xmlns:dc="http://purl.org/dc/elements/1.1/" xmlns:cc="http://creativecommons.org/ns#" xmlns:rdf="http://www.w3.org/1999/02/22-rdf-syntax-ns#">
   <cc:Work>
    <dc:type rdf:resource="http://purl.org/dc/dcmitype/StillImage"/>
    <dc:date>2022-07-11T11:33:10.968740</dc:date>
    <dc:format>image/svg+xml</dc:format>
    <dc:creator>
     <cc:Agent>
      <dc:title>Matplotlib v3.5.2, https://matplotlib.org/</dc:title>
     </cc:Agent>
    </dc:creator>
   </cc:Work>
  </rdf:RDF>
 </metadata>
 <defs>
  <style type="text/css">*{stroke-linejoin: round; stroke-linecap: butt}</style>
 </defs>
 <g id="figure_1">
  <g id="patch_1">
   <path d="M 0 720 
L 720 720 
L 720 0 
L 0 0 
L 0 720 
z
" style="fill: none"/>
  </g>
  <g id="axes_1">
   <g id="patch_2">
    <path d="M 60.03 680.72 
L 702.72 680.72 
L 702.72 38.28 
L 60.03 38.28 
z
" style="fill: #ffffff"/>
   </g>
   <g id="PathCollection_1">
    <defs>
     <path id="m01938d8c34" d="M 0 3 
C 0.795609 3 1.55874 2.683901 2.12132 2.12132 
C 2.683901 1.55874 3 0.795609 3 0 
C 3 -0.795609 2.683901 -1.55874 2.12132 -2.12132 
C 1.55874 -2.683901 0.795609 -3 0 -3 
C -0.795609 -3 -1.55874 -2.683901 -2.12132 -2.12132 
C -2.683901 -1.55874 -3 -0.795609 -3 0 
C -3 0.795609 -2.683901 1.55874 -2.12132 2.12132 
C -1.55874 2.683901 -0.795609 3 0 3 
z
" style="stroke: #808080; stroke-opacity: 0.8"/>
    </defs>
    <g clip-path="url(#p330eceb83d)">
     <use xlink:href="#m01938d8c34" x="89.243182" y="651.518182" style="fill: #808080; fill-opacity: 0.8; stroke: #808080; stroke-opacity: 0.8"/>
     <use xlink:href="#m01938d8c34" x="172.709416" y="485.852917" style="fill: #808080; fill-opacity: 0.8; stroke: #808080; stroke-opacity: 0.8"/>
     <use xlink:href="#m01938d8c34" x="256.175649" y="396.595406" style="fill: #808080; fill-opacity: 0.8; stroke: #808080; stroke-opacity: 0.8"/>
     <use xlink:href="#m01938d8c34" x="339.641883" y="350.667552" style="fill: #808080; fill-opacity: 0.8; stroke: #808080; stroke-opacity: 0.8"/>
     <use xlink:href="#m01938d8c34" x="423.108117" y="302.006112" style="fill: #808080; fill-opacity: 0.8; stroke: #808080; stroke-opacity: 0.8"/>
     <use xlink:href="#m01938d8c34" x="506.574351" y="277.611887" style="fill: #808080; fill-opacity: 0.8; stroke: #808080; stroke-opacity: 0.8"/>
     <use xlink:href="#m01938d8c34" x="590.040584" y="262.919639" style="fill: #808080; fill-opacity: 0.8; stroke: #808080; stroke-opacity: 0.8"/>
     <use xlink:href="#m01938d8c34" x="673.506818" y="254.800595" style="fill: #808080; fill-opacity: 0.8; stroke: #808080; stroke-opacity: 0.8"/>
    </g>
   </g>
   <g id="PolyCollection_1">
    <path d="M 89.243182 427.040803 
L 89.243182 624.929769 
L 95.144835 619.549404 
L 101.046488 615.03236 
L 106.94814 610.981039 
L 112.849793 606.50157 
L 118.751446 601.512727 
L 124.653099 596.820392 
L 130.554752 591.360186 
L 136.456405 586.405669 
L 142.358058 580.690672 
L 148.259711 576.390625 
L 154.161364 572.437817 
L 160.063017 568.485009 
L 165.964669 563.479252 
L 171.866322 557.958181 
L 177.767975 553.421443 
L 183.669628 548.575888 
L 189.571281 543.189053 
L 195.472934 538.161614 
L 201.374587 534.291466 
L 207.27624 529.525741 
L 213.177893 524.35785 
L 219.079545 520.55889 
L 224.981198 516.755249 
L 230.882851 512.946456 
L 236.784504 507.979652 
L 242.686157 503.092777 
L 248.58781 498.166212 
L 254.489463 493.862738 
L 260.391116 488.952418 
L 266.292769 484.521077 
L 272.194421 480.499263 
L 278.096074 476.029475 
L 283.997727 471.922611 
L 289.89938 467.975234 
L 295.801033 464.022631 
L 301.702686 460.054784 
L 307.604339 456.10836 
L 313.505992 452.230243 
L 319.407645 448.405145 
L 325.309298 444.454057 
L 331.21095 440.640719 
L 337.112603 436.822598 
L 343.014256 433.014043 
L 348.915909 429.200705 
L 354.817562 425.385201 
L 360.719215 421.536546 
L 366.620868 417.281324 
L 372.522521 413.102946 
L 378.424174 409.076536 
L 384.325826 405.304158 
L 390.227479 401.395934 
L 396.129132 397.011955 
L 402.030785 392.65196 
L 407.932438 388.781577 
L 413.834091 384.769012 
L 419.735744 380.91003 
L 425.637397 376.958257 
L 431.53905 373.006483 
L 437.440702 369.054709 
L 443.342355 365.133254 
L 449.244008 361.785479 
L 455.145661 358.287959 
L 461.047314 354.473557 
L 466.948967 350.660187 
L 472.85062 346.855314 
L 478.752273 343.041255 
L 484.653926 339.183951 
L 490.555579 335.416376 
L 496.457231 331.609793 
L 502.358884 328.347507 
L 508.260537 325.24777 
L 514.16219 322.149476 
L 520.063843 318.57311 
L 525.965496 315.415432 
L 531.867149 311.862807 
L 537.768802 308.368904 
L 543.670455 304.641153 
L 549.572107 301.143694 
L 555.47376 297.793359 
L 561.375413 294.277571 
L 567.277066 291.005248 
L 573.178719 287.908318 
L 579.080372 284.58697 
L 584.982025 281.548211 
L 590.883678 278.513488 
L 596.785331 275.486004 
L 602.686983 272.454554 
L 608.588636 269.427339 
L 614.490289 266.702199 
L 620.391942 263.753397 
L 626.293595 261.702429 
L 632.195248 259.59385 
L 638.096901 257.233035 
L 643.998554 255.078856 
L 649.900207 252.993041 
L 655.80186 251.29547 
L 661.703512 248.939431 
L 667.605165 246.796448 
L 673.506818 244.437717 
L 673.506818 67.481818 
L 673.506818 67.481818 
L 667.605165 72.872172 
L 661.703512 78.26764 
L 655.80186 83.656696 
L 649.900207 89.045752 
L 643.998554 94.434809 
L 638.096901 99.823865 
L 632.195248 105.212921 
L 626.293595 110.601977 
L 620.391942 115.991033 
L 614.490289 121.395825 
L 608.588636 126.816521 
L 602.686983 132.237217 
L 596.785331 137.657914 
L 590.883678 143.07861 
L 584.982025 148.397415 
L 579.080372 153.714427 
L 573.178719 159.103483 
L 567.277066 164.492539 
L 561.375413 169.881595 
L 555.47376 175.270651 
L 549.572107 180.659708 
L 543.670455 186.048764 
L 537.768802 191.435479 
L 531.867149 196.814047 
L 525.965496 202.207721 
L 520.063843 207.604989 
L 514.16219 212.994045 
L 508.260537 218.383101 
L 502.358884 223.772157 
L 496.457231 229.161213 
L 490.555579 234.55027 
L 484.653926 239.934581 
L 478.752273 245.31222 
L 472.85062 250.689859 
L 466.948967 256.072882 
L 461.047314 261.466058 
L 455.145661 266.859467 
L 449.244008 272.252877 
L 443.342355 277.646286 
L 437.440702 283.039696 
L 431.53905 288.002549 
L 425.637397 292.347945 
L 419.735744 296.582774 
L 413.834091 300.794821 
L 407.932438 305.189309 
L 402.030785 310.171679 
L 396.129132 314.18107 
L 390.227479 318.172046 
L 384.325826 321.338072 
L 378.424174 325.477785 
L 372.522521 329.04438 
L 366.620868 331.381045 
L 360.719215 333.136278 
L 354.817562 335.36988 
L 348.915909 339.137828 
L 343.014256 342.97203 
L 337.112603 346.069724 
L 331.21095 348.421795 
L 325.309298 350.447061 
L 319.407645 352.442207 
L 313.505992 354.444774 
L 307.604339 356.447341 
L 301.702686 358.449908 
L 295.801033 361.683697 
L 289.89938 363.471905 
L 283.997727 365.260113 
L 278.096074 367.048321 
L 272.194421 368.836529 
L 266.292769 371.242672 
L 260.391116 373.084805 
L 254.489463 374.930319 
L 248.58781 376.775832 
L 242.686157 378.621346 
L 236.784504 380.518243 
L 230.882851 382.519488 
L 224.981198 384.520733 
L 219.079545 386.521978 
L 213.177893 388.486544 
L 207.27624 390.317127 
L 201.374587 392.14771 
L 195.472934 393.978294 
L 189.571281 395.808877 
L 183.669628 397.63946 
L 177.767975 399.470043 
L 171.866322 401.300627 
L 165.964669 403.13121 
L 160.063017 404.961793 
L 154.161364 406.792377 
L 148.259711 408.62296 
L 142.358058 410.453543 
L 136.456405 412.284126 
L 130.554752 414.11471 
L 124.653099 415.945293 
L 118.751446 417.775876 
L 112.849793 419.608662 
L 106.94814 421.442085 
L 101.046488 423.275508 
L 95.144835 425.108932 
L 89.243182 427.040803 
z
" clip-path="url(#p330eceb83d)" style="fill: #808080; fill-opacity: 0.15"/>
   </g>
   <g id="matplotlib.axis_1">
    <g id="xtick_1">
     <g id="line2d_1">
      <defs>
       <path id="m6e0b668d12" d="M 0 0 
L 0 3.5 
" style="stroke: #000000; stroke-width: 0.8"/>
      </defs>
      <g>
       <use xlink:href="#m6e0b668d12" x="89.243182" y="680.72" style="stroke: #000000; stroke-width: 0.8"/>
      </g>
     </g>
     <g id="text_1">
      <text style="font: 16px 'sans-serif'; text-anchor: middle" x="89.243182" y="699.8775" transform="rotate(-0, 89.243182, 699.8775)">0</text>
     </g>
    </g>
    <g id="xtick_2">
     <g id="line2d_2">
      <g>
       <use xlink:href="#m6e0b668d12" x="160.785668" y="680.72" style="stroke: #000000; stroke-width: 0.8"/>
      </g>
     </g>
     <g id="text_2">
      <text style="font: 16px 'sans-serif'; text-anchor: middle" x="160.785668" y="699.8775" transform="rotate(-0, 160.785668, 699.8775)">1</text>
     </g>
    </g>
    <g id="xtick_3">
     <g id="line2d_3">
      <g>
       <use xlink:href="#m6e0b668d12" x="232.328154" y="680.72" style="stroke: #000000; stroke-width: 0.8"/>
      </g>
     </g>
     <g id="text_3">
      <text style="font: 16px 'sans-serif'; text-anchor: middle" x="232.328154" y="699.8775" transform="rotate(-0, 232.328154, 699.8775)">2</text>
     </g>
    </g>
    <g id="xtick_4">
     <g id="line2d_4">
      <g>
       <use xlink:href="#m6e0b668d12" x="303.87064" y="680.72" style="stroke: #000000; stroke-width: 0.8"/>
      </g>
     </g>
     <g id="text_4">
      <text style="font: 16px 'sans-serif'; text-anchor: middle" x="303.87064" y="699.8775" transform="rotate(-0, 303.87064, 699.8775)">3</text>
     </g>
    </g>
    <g id="xtick_5">
     <g id="line2d_5">
      <g>
       <use xlink:href="#m6e0b668d12" x="375.413126" y="680.72" style="stroke: #000000; stroke-width: 0.8"/>
      </g>
     </g>
     <g id="text_5">
      <text style="font: 16px 'sans-serif'; text-anchor: middle" x="375.413126" y="699.8775" transform="rotate(-0, 375.413126, 699.8775)">4</text>
     </g>
    </g>
    <g id="xtick_6">
     <g id="line2d_6">
      <g>
       <use xlink:href="#m6e0b668d12" x="446.955612" y="680.72" style="stroke: #000000; stroke-width: 0.8"/>
      </g>
     </g>
     <g id="text_6">
      <text style="font: 16px 'sans-serif'; text-anchor: middle" x="446.955612" y="699.8775" transform="rotate(-0, 446.955612, 699.8775)">5</text>
     </g>
    </g>
    <g id="xtick_7">
     <g id="line2d_7">
      <g>
       <use xlink:href="#m6e0b668d12" x="518.498098" y="680.72" style="stroke: #000000; stroke-width: 0.8"/>
      </g>
     </g>
     <g id="text_7">
      <text style="font: 16px 'sans-serif'; text-anchor: middle" x="518.498098" y="699.8775" transform="rotate(-0, 518.498098, 699.8775)">6</text>
     </g>
    </g>
    <g id="xtick_8">
     <g id="line2d_8">
      <g>
       <use xlink:href="#m6e0b668d12" x="590.040584" y="680.72" style="stroke: #000000; stroke-width: 0.8"/>
      </g>
     </g>
     <g id="text_8">
      <text style="font: 16px 'sans-serif'; text-anchor: middle" x="590.040584" y="699.8775" transform="rotate(-0, 590.040584, 699.8775)">7</text>
     </g>
    </g>
    <g id="xtick_9">
     <g id="line2d_9">
      <g>
       <use xlink:href="#m6e0b668d12" x="661.583071" y="680.72" style="stroke: #000000; stroke-width: 0.8"/>
      </g>
     </g>
     <g id="text_9">
      <text style="font: 16px 'sans-serif'; text-anchor: middle" x="661.583071" y="699.8775" transform="rotate(-0, 661.583071, 699.8775)">8</text>
     </g>
    </g>
   </g>
   <g id="matplotlib.axis_2">
    <g id="ytick_1">
     <g id="line2d_10">
      <defs>
       <path id="m06bc8e4e2c" d="M 0 0 
L -3.5 0 
" style="stroke: #000000; stroke-width: 0.8"/>
      </defs>
      <g>
       <use xlink:href="#m06bc8e4e2c" x="60.03" y="623.446033" style="stroke: #000000; stroke-width: 0.8"/>
      </g>
     </g>
     <g id="text_10">
      <text style="font: 16px 'sans-serif'; text-anchor: end" x="53.03" y="629.524783" transform="rotate(-0, 53.03, 629.524783)">19.2</text>
     </g>
    </g>
    <g id="ytick_2">
     <g id="line2d_11">
      <g>
       <use xlink:href="#m06bc8e4e2c" x="60.03" y="526.209651" style="stroke: #000000; stroke-width: 0.8"/>
      </g>
     </g>
     <g id="text_11">
      <text style="font: 16px 'sans-serif'; text-anchor: end" x="53.03" y="532.288401" transform="rotate(-0, 53.03, 532.288401)">19.4</text>
     </g>
    </g>
    <g id="ytick_3">
     <g id="line2d_12">
      <g>
       <use xlink:href="#m06bc8e4e2c" x="60.03" y="428.973268" style="stroke: #000000; stroke-width: 0.8"/>
      </g>
     </g>
     <g id="text_12">
      <text style="font: 16px 'sans-serif'; text-anchor: end" x="53.03" y="435.052018" transform="rotate(-0, 53.03, 435.052018)">19.6</text>
     </g>
    </g>
    <g id="ytick_4">
     <g id="line2d_13">
      <g>
       <use xlink:href="#m06bc8e4e2c" x="60.03" y="331.736885" style="stroke: #000000; stroke-width: 0.8"/>
      </g>
     </g>
     <g id="text_13">
      <text style="font: 16px 'sans-serif'; text-anchor: end" x="53.03" y="337.815635" transform="rotate(-0, 53.03, 337.815635)">19.8</text>
     </g>
    </g>
    <g id="ytick_5">
     <g id="line2d_14">
      <g>
       <use xlink:href="#m06bc8e4e2c" x="60.03" y="234.500503" style="stroke: #000000; stroke-width: 0.8"/>
      </g>
     </g>
     <g id="text_14">
      <text style="font: 16px 'sans-serif'; text-anchor: end" x="53.03" y="240.579253" transform="rotate(-0, 53.03, 240.579253)">20.0</text>
     </g>
    </g>
    <g id="ytick_6">
     <g id="line2d_15">
      <g>
       <use xlink:href="#m06bc8e4e2c" x="60.03" y="137.26412" style="stroke: #000000; stroke-width: 0.8"/>
      </g>
     </g>
     <g id="text_15">
      <text style="font: 16px 'sans-serif'; text-anchor: end" x="53.03" y="143.34287" transform="rotate(-0, 53.03, 143.34287)">20.2</text>
     </g>
    </g>
    <g id="ytick_7">
     <g id="line2d_16">
      <g>
       <use xlink:href="#m06bc8e4e2c" x="60.03" y="40.027738" style="stroke: #000000; stroke-width: 0.8"/>
      </g>
     </g>
     <g id="text_16">
      <text style="font: 16px 'sans-serif'; text-anchor: end" x="53.03" y="46.106488" transform="rotate(-0, 53.03, 46.106488)">20.4</text>
     </g>
    </g>
   </g>
   <g id="line2d_17">
    <path d="M 89.243182 551.800765 
L 95.144835 548.183508 
L 101.046488 544.566251 
L 106.94814 540.948993 
L 112.849793 537.331736 
L 118.751446 533.714479 
L 124.653099 530.097222 
L 130.554752 526.479965 
L 136.456405 522.862708 
L 142.358058 519.245451 
L 148.259711 515.628193 
L 154.161364 512.010936 
L 160.063017 508.393679 
L 165.964669 504.776422 
L 171.866322 501.159165 
L 177.767975 497.541908 
L 183.669628 493.924651 
L 189.571281 490.307393 
L 195.472934 486.690136 
L 201.374587 483.072879 
L 207.27624 479.455622 
L 213.177893 475.838365 
L 219.079545 472.221108 
L 224.981198 468.603851 
L 230.882851 464.986593 
L 236.784504 461.369336 
L 242.686157 457.752079 
L 248.58781 454.134822 
L 254.489463 450.517565 
L 260.391116 446.900308 
L 266.292769 443.283051 
L 272.194421 439.665793 
L 278.096074 436.048536 
L 283.997727 432.431279 
L 289.89938 428.814022 
L 295.801033 425.196765 
L 301.702686 421.579508 
L 307.604339 417.962251 
L 313.505992 414.344993 
L 319.407645 410.727736 
L 325.309298 407.110479 
L 331.21095 403.493222 
L 337.112603 399.875965 
L 343.014256 396.258708 
L 348.915909 392.641451 
L 354.817562 389.024193 
L 360.719215 385.406936 
L 366.620868 381.789679 
L 372.522521 378.172422 
L 378.424174 374.555165 
L 384.325826 370.937908 
L 390.227479 367.320651 
L 396.129132 363.703393 
L 402.030785 360.086136 
L 407.932438 356.468879 
L 413.834091 352.851622 
L 419.735744 349.234365 
L 425.637397 345.617108 
L 431.53905 341.999851 
L 437.440702 338.382593 
L 443.342355 334.765336 
L 449.244008 331.148079 
L 455.145661 327.530822 
L 461.047314 323.913565 
L 466.948967 320.296308 
L 472.85062 316.679051 
L 478.752273 313.061793 
L 484.653926 309.444536 
L 490.555579 305.827279 
L 496.457231 302.210022 
L 502.358884 298.592765 
L 508.260537 294.975508 
L 514.16219 291.358251 
L 520.063843 287.740993 
L 525.965496 284.123736 
L 531.867149 280.506479 
L 537.768802 276.889222 
L 543.670455 273.271965 
L 549.572107 269.654708 
L 555.47376 266.037451 
L 561.375413 262.420193 
L 567.277066 258.802936 
L 573.178719 255.185679 
L 579.080372 251.568422 
L 584.982025 247.951165 
L 590.883678 244.333908 
L 596.785331 240.716651 
L 602.686983 237.099393 
L 608.588636 233.482136 
L 614.490289 229.864879 
L 620.391942 226.247622 
L 626.293595 222.630365 
L 632.195248 219.013108 
L 638.096901 215.395851 
L 643.998554 211.778593 
L 649.900207 208.161336 
L 655.80186 204.544079 
L 661.703512 200.926822 
L 667.605165 197.309565 
L 673.506818 193.692308 
" clip-path="url(#p330eceb83d)" style="fill: none; stroke: #808080; stroke-width: 2.25; stroke-linecap: square"/>
   </g>
   <g id="patch_3">
    <path d="M 60.03 680.72 
L 60.03 38.28 
" style="fill: none; stroke: #000000; stroke-width: 0.8; stroke-linejoin: miter; stroke-linecap: square"/>
   </g>
   <g id="patch_4">
    <path d="M 702.72 680.72 
L 702.72 38.28 
" style="fill: none; stroke: #000000; stroke-width: 0.8; stroke-linejoin: miter; stroke-linecap: square"/>
   </g>
   <g id="patch_5">
    <path d="M 60.03 680.72 
L 702.72 680.72 
" style="fill: none; stroke: #000000; stroke-width: 0.8; stroke-linejoin: miter; stroke-linecap: square"/>
   </g>
   <g id="patch_6">
    <path d="M 60.03 38.28 
L 702.72 38.28 
" style="fill: none; stroke: #000000; stroke-width: 0.8; stroke-linejoin: miter; stroke-linecap: square"/>
   </g>
   <g id="text_17">
    <text style="font: 19.2px 'sans-serif'; text-anchor: middle" x="381.375" y="32.28" transform="rotate(-0, 381.375, 32.28)">Exponential step for growth rate calculations for 10U</text>
   </g>
   <g id="legend_1">
    <g id="patch_7">
     <path d="M 476.8225 74.565 
L 691.52 74.565 
Q 694.72 74.565 694.72 71.365 
L 694.72 49.48 
Q 694.72 46.28 691.52 46.28 
L 476.8225 46.28 
Q 473.6225 46.28 473.6225 49.48 
L 473.6225 71.365 
Q 473.6225 74.565 476.8225 74.565 
z
" style="fill: #ffffff; opacity: 0.8; stroke: #cccccc; stroke-linejoin: miter"/>
    </g>
    <g id="line2d_18">
     <path d="M 480.0225 59.2375 
L 496.0225 59.2375 
L 512.0225 59.2375 
" style="fill: none; stroke: #808080; stroke-width: 2.25; stroke-linecap: square"/>
    </g>
    <g id="text_18">
     <text style="font: 16px 'sans-serif'; text-anchor: start" x="524.8225" y="64.8375" transform="rotate(-0, 524.8225, 64.8375)">y=9.26159x+-178.5</text>
    </g>
   </g>
  </g>
 </g>
 <defs>
  <clipPath id="p330eceb83d">
   <rect x="60.03" y="38.28" width="642.69" height="642.44"/>
  </clipPath>
 </defs>
</svg>
