<?xml version="1.0" encoding="utf-8" standalone="no"?>
<!DOCTYPE svg PUBLIC "-//W3C//DTD SVG 1.1//EN"
  "http://www.w3.org/Graphics/SVG/1.1/DTD/svg11.dtd">
<svg xmlns:xlink="http://www.w3.org/1999/xlink" width="720pt" height="720pt" viewBox="0 0 720 720" xmlns="http://www.w3.org/2000/svg" version="1.1">
 <metadata>
  <rdf:RDF xmlns:dc="http://purl.org/dc/elements/1.1/" xmlns:cc="http://creativecommons.org/ns#" xmlns:rdf="http://www.w3.org/1999/02/22-rdf-syntax-ns#">
   <cc:Work>
    <dc:type rdf:resource="http://purl.org/dc/dcmitype/StillImage"/>
    <dc:date>2022-07-11T11:33:10.827554</dc:date>
    <dc:format>image/svg+xml</dc:format>
    <dc:creator>
     <cc:Agent>
      <dc:title>Matplotlib v3.5.2, https://matplotlib.org/</dc:title>
     </cc:Agent>
    </dc:creator>
   </cc:Work>
  </rdf:RDF>
 </metadata>
 <defs>
  <style type="text/css">*{stroke-linejoin: round; stroke-linecap: butt}</style>
 </defs>
 <g id="figure_1">
  <g id="patch_1">
   <path d="M 0 720 
L 720 720 
L 720 0 
L 0 0 
L 0 720 
z
" style="fill: none"/>
  </g>
  <g id="axes_1">
   <g id="patch_2">
    <path d="M 60.03 680.72 
L 702.72 680.72 
L 702.72 38.28 
L 60.03 38.28 
z
" style="fill: #ffffff"/>
   </g>
   <g id="PathCollection_1">
    <defs>
     <path id="m4045299368" d="M 0 3 
C 0.795609 3 1.55874 2.683901 2.12132 2.12132 
C 2.683901 1.55874 3 0.795609 3 0 
C 3 -0.795609 2.683901 -1.55874 2.12132 -2.12132 
C 1.55874 -2.683901 0.795609 -3 0 -3 
C -0.795609 -3 -1.55874 -2.683901 -2.12132 -2.12132 
C -2.683901 -1.55874 -3 -0.795609 -3 0 
C -3 0.795609 -2.683901 1.55874 -2.12132 2.12132 
C -1.55874 2.683901 -0.795609 3 0 3 
z
" style="stroke: #0000ff; stroke-opacity: 0.8"/>
    </defs>
    <g clip-path="url(#pff28462e9a)">
     <use xlink:href="#m4045299368" x="89.243182" y="651.518182" style="fill: #0000ff; fill-opacity: 0.8; stroke: #0000ff; stroke-opacity: 0.8"/>
     <use xlink:href="#m4045299368" x="172.709416" y="507.685695" style="fill: #0000ff; fill-opacity: 0.8; stroke: #0000ff; stroke-opacity: 0.8"/>
     <use xlink:href="#m4045299368" x="256.175649" y="418.47179" style="fill: #0000ff; fill-opacity: 0.8; stroke: #0000ff; stroke-opacity: 0.8"/>
     <use xlink:href="#m4045299368" x="339.641883" y="357.151278" style="fill: #0000ff; fill-opacity: 0.8; stroke: #0000ff; stroke-opacity: 0.8"/>
     <use xlink:href="#m4045299368" x="423.108117" y="303.443175" style="fill: #0000ff; fill-opacity: 0.8; stroke: #0000ff; stroke-opacity: 0.8"/>
     <use xlink:href="#m4045299368" x="506.574351" y="260.533327" style="fill: #0000ff; fill-opacity: 0.8; stroke: #0000ff; stroke-opacity: 0.8"/>
     <use xlink:href="#m4045299368" x="590.040584" y="225.14961" style="fill: #0000ff; fill-opacity: 0.8; stroke: #0000ff; stroke-opacity: 0.8"/>
     <use xlink:href="#m4045299368" x="673.506818" y="199.820706" style="fill: #0000ff; fill-opacity: 0.8; stroke: #0000ff; stroke-opacity: 0.8"/>
    </g>
   </g>
   <g id="PolyCollection_1">
    <path d="M 89.243182 484.419124 
L 89.243182 632.516668 
L 95.144835 627.512021 
L 101.046488 622.103647 
L 106.94814 616.934905 
L 112.849793 611.520231 
L 118.751446 606.38272 
L 124.653099 601.43302 
L 130.554752 596.276709 
L 136.456405 591.118586 
L 142.358058 585.951409 
L 148.259711 580.903788 
L 154.161364 575.639656 
L 160.063017 570.512551 
L 165.964669 565.77659 
L 171.866322 560.310856 
L 177.767975 555.054416 
L 183.669628 550.225492 
L 189.571281 545.24374 
L 195.472934 540.223432 
L 201.374587 535.571747 
L 207.27624 530.920062 
L 213.177893 526.131817 
L 219.079545 521.210145 
L 224.981198 516.494991 
L 230.882851 511.633138 
L 236.784504 506.28664 
L 242.686157 501.421481 
L 248.58781 496.708109 
L 254.489463 492.132298 
L 260.391116 487.46087 
L 266.292769 482.753303 
L 272.194421 477.830576 
L 278.096074 473.087329 
L 283.997727 468.310865 
L 289.89938 463.492452 
L 295.801033 458.67404 
L 301.702686 453.856617 
L 307.604339 449.040187 
L 313.505992 444.223756 
L 319.407645 439.56402 
L 325.309298 434.968084 
L 331.21095 430.258926 
L 337.112603 425.765205 
L 343.014256 421.025383 
L 348.915909 416.648136 
L 354.817562 412.278373 
L 360.719215 407.887217 
L 366.620868 402.983424 
L 372.522521 398.178798 
L 378.424174 393.575442 
L 384.325826 388.98543 
L 390.227479 384.380446 
L 396.129132 379.643656 
L 402.030785 375.355226 
L 407.932438 371.226387 
L 413.834091 367.09679 
L 419.735744 362.224548 
L 425.637397 357.276002 
L 431.53905 352.432175 
L 437.440702 347.892398 
L 443.342355 343.352621 
L 449.244008 339.05171 
L 455.145661 334.897194 
L 461.047314 330.382767 
L 466.948967 325.822015 
L 472.85062 321.446421 
L 478.752273 317.070828 
L 484.653926 312.496259 
L 490.555579 308.33603 
L 496.457231 303.976933 
L 502.358884 299.707955 
L 508.260537 295.553418 
L 514.16219 291.073351 
L 520.063843 286.494037 
L 525.965496 282.187884 
L 531.867149 277.939533 
L 537.768802 273.782682 
L 543.670455 269.721865 
L 549.572107 265.661047 
L 555.47376 262.009246 
L 561.375413 258.009541 
L 567.277066 254.052702 
L 573.178719 250.543441 
L 579.080372 246.244933 
L 584.982025 242.022601 
L 590.883678 238.454553 
L 596.785331 234.876366 
L 602.686983 231.249595 
L 608.588636 227.829912 
L 614.490289 224.294581 
L 620.391942 220.960113 
L 626.293595 217.875161 
L 632.195248 214.77764 
L 638.096901 211.41339 
L 643.998554 208.428583 
L 649.900207 205.126072 
L 655.80186 202.083622 
L 661.703512 198.762088 
L 667.605165 195.428828 
L 673.506818 192.243983 
L 673.506818 67.481818 
L 673.506818 67.481818 
L 667.605165 73.040041 
L 661.703512 78.598263 
L 655.80186 84.156486 
L 649.900207 89.714708 
L 643.998554 95.272931 
L 638.096901 100.831153 
L 632.195248 106.262578 
L 626.293595 111.59952 
L 620.391942 116.938354 
L 614.490289 122.278942 
L 608.588636 127.61953 
L 602.686983 133.279063 
L 596.785331 138.868607 
L 590.883678 144.178872 
L 584.982025 149.489138 
L 579.080372 154.877688 
L 573.178719 160.407755 
L 567.277066 165.928753 
L 561.375413 171.45135 
L 555.47376 176.95791 
L 549.572107 182.234998 
L 543.670455 187.771961 
L 537.768802 193.382575 
L 531.867149 198.723004 
L 525.965496 203.705065 
L 520.063843 209.110046 
L 514.16219 214.878012 
L 508.260537 220.645979 
L 502.358884 226.413945 
L 496.457231 232.182911 
L 490.555579 237.648548 
L 484.653926 242.940573 
L 478.752273 248.232598 
L 472.85062 253.524623 
L 466.948967 258.816648 
L 461.047314 264.108673 
L 455.145661 269.400698 
L 449.244008 274.692723 
L 443.342355 279.984748 
L 437.440702 285.276773 
L 431.53905 290.673131 
L 425.637397 296.156076 
L 419.735744 301.476115 
L 413.834091 306.423248 
L 407.932438 311.702222 
L 402.030785 316.408829 
L 396.129132 321.38149 
L 390.227479 324.903023 
L 384.325826 329.346649 
L 378.424174 332.072854 
L 372.522521 337.553344 
L 366.620868 340.869037 
L 360.719215 344.102367 
L 354.817562 347.657994 
L 348.915909 350.71599 
L 343.014256 354.606462 
L 337.112603 357.785116 
L 331.21095 360.771825 
L 325.309298 364.038339 
L 319.407645 367.003272 
L 313.505992 369.968205 
L 307.604339 372.933138 
L 301.702686 375.89807 
L 295.801033 378.863003 
L 289.89938 381.827936 
L 283.997727 384.792869 
L 278.096074 387.757945 
L 272.194421 390.803908 
L 266.292769 393.920881 
L 260.391116 397.037853 
L 254.489463 400.12525 
L 248.58781 402.993397 
L 242.686157 405.862527 
L 236.784504 408.758065 
L 230.882851 411.811248 
L 224.981198 414.861788 
L 219.079545 417.912328 
L 213.177893 420.964802 
L 207.27624 424.017469 
L 201.374587 427.07056 
L 195.472934 430.125104 
L 189.571281 433.083097 
L 183.669628 435.997861 
L 177.767975 438.912625 
L 171.866322 441.86853 
L 165.964669 444.928559 
L 160.063017 447.988589 
L 154.161364 451.048618 
L 148.259711 454.108647 
L 142.358058 457.173768 
L 136.456405 460.239493 
L 130.554752 463.305219 
L 124.653099 466.31666 
L 118.751446 469.225201 
L 112.849793 472.274832 
L 106.94814 475.407703 
L 101.046488 478.465258 
L 95.144835 481.442191 
L 89.243182 484.419124 
z
" clip-path="url(#pff28462e9a)" style="fill: #0000ff; fill-opacity: 0.15"/>
   </g>
   <g id="matplotlib.axis_1">
    <g id="xtick_1">
     <g id="line2d_1">
      <defs>
       <path id="me91a536121" d="M 0 0 
L 0 3.5 
" style="stroke: #000000; stroke-width: 0.8"/>
      </defs>
      <g>
       <use xlink:href="#me91a536121" x="89.243182" y="680.72" style="stroke: #000000; stroke-width: 0.8"/>
      </g>
     </g>
     <g id="text_1">
      <text style="font: 16px 'sans-serif'; text-anchor: middle" x="89.243182" y="699.8775" transform="rotate(-0, 89.243182, 699.8775)">0</text>
     </g>
    </g>
    <g id="xtick_2">
     <g id="line2d_2">
      <g>
       <use xlink:href="#me91a536121" x="160.785668" y="680.72" style="stroke: #000000; stroke-width: 0.8"/>
      </g>
     </g>
     <g id="text_2">
      <text style="font: 16px 'sans-serif'; text-anchor: middle" x="160.785668" y="699.8775" transform="rotate(-0, 160.785668, 699.8775)">1</text>
     </g>
    </g>
    <g id="xtick_3">
     <g id="line2d_3">
      <g>
       <use xlink:href="#me91a536121" x="232.328154" y="680.72" style="stroke: #000000; stroke-width: 0.8"/>
      </g>
     </g>
     <g id="text_3">
      <text style="font: 16px 'sans-serif'; text-anchor: middle" x="232.328154" y="699.8775" transform="rotate(-0, 232.328154, 699.8775)">2</text>
     </g>
    </g>
    <g id="xtick_4">
     <g id="line2d_4">
      <g>
       <use xlink:href="#me91a536121" x="303.87064" y="680.72" style="stroke: #000000; stroke-width: 0.8"/>
      </g>
     </g>
     <g id="text_4">
      <text style="font: 16px 'sans-serif'; text-anchor: middle" x="303.87064" y="699.8775" transform="rotate(-0, 303.87064, 699.8775)">3</text>
     </g>
    </g>
    <g id="xtick_5">
     <g id="line2d_5">
      <g>
       <use xlink:href="#me91a536121" x="375.413126" y="680.72" style="stroke: #000000; stroke-width: 0.8"/>
      </g>
     </g>
     <g id="text_5">
      <text style="font: 16px 'sans-serif'; text-anchor: middle" x="375.413126" y="699.8775" transform="rotate(-0, 375.413126, 699.8775)">4</text>
     </g>
    </g>
    <g id="xtick_6">
     <g id="line2d_6">
      <g>
       <use xlink:href="#me91a536121" x="446.955612" y="680.72" style="stroke: #000000; stroke-width: 0.8"/>
      </g>
     </g>
     <g id="text_6">
      <text style="font: 16px 'sans-serif'; text-anchor: middle" x="446.955612" y="699.8775" transform="rotate(-0, 446.955612, 699.8775)">5</text>
     </g>
    </g>
    <g id="xtick_7">
     <g id="line2d_7">
      <g>
       <use xlink:href="#me91a536121" x="518.498098" y="680.72" style="stroke: #000000; stroke-width: 0.8"/>
      </g>
     </g>
     <g id="text_7">
      <text style="font: 16px 'sans-serif'; text-anchor: middle" x="518.498098" y="699.8775" transform="rotate(-0, 518.498098, 699.8775)">6</text>
     </g>
    </g>
    <g id="xtick_8">
     <g id="line2d_8">
      <g>
       <use xlink:href="#me91a536121" x="590.040584" y="680.72" style="stroke: #000000; stroke-width: 0.8"/>
      </g>
     </g>
     <g id="text_8">
      <text style="font: 16px 'sans-serif'; text-anchor: middle" x="590.040584" y="699.8775" transform="rotate(-0, 590.040584, 699.8775)">7</text>
     </g>
    </g>
    <g id="xtick_9">
     <g id="line2d_9">
      <g>
       <use xlink:href="#me91a536121" x="661.583071" y="680.72" style="stroke: #000000; stroke-width: 0.8"/>
      </g>
     </g>
     <g id="text_9">
      <text style="font: 16px 'sans-serif'; text-anchor: middle" x="661.583071" y="699.8775" transform="rotate(-0, 661.583071, 699.8775)">8</text>
     </g>
    </g>
   </g>
   <g id="matplotlib.axis_2">
    <g id="ytick_1">
     <g id="line2d_10">
      <defs>
       <path id="md08641644e" d="M 0 0 
L -3.5 0 
" style="stroke: #000000; stroke-width: 0.8"/>
      </defs>
      <g>
       <use xlink:href="#md08641644e" x="60.03" y="656.264229" style="stroke: #000000; stroke-width: 0.8"/>
      </g>
     </g>
     <g id="text_10">
      <text style="font: 16px 'sans-serif'; text-anchor: end" x="53.03" y="662.342979" transform="rotate(-0, 53.03, 662.342979)">19.0</text>
     </g>
    </g>
    <g id="ytick_2">
     <g id="line2d_11">
      <g>
       <use xlink:href="#md08641644e" x="60.03" y="562.49518" style="stroke: #000000; stroke-width: 0.8"/>
      </g>
     </g>
     <g id="text_11">
      <text style="font: 16px 'sans-serif'; text-anchor: end" x="53.03" y="568.57393" transform="rotate(-0, 53.03, 568.57393)">19.2</text>
     </g>
    </g>
    <g id="ytick_3">
     <g id="line2d_12">
      <g>
       <use xlink:href="#md08641644e" x="60.03" y="468.726131" style="stroke: #000000; stroke-width: 0.8"/>
      </g>
     </g>
     <g id="text_12">
      <text style="font: 16px 'sans-serif'; text-anchor: end" x="53.03" y="474.804881" transform="rotate(-0, 53.03, 474.804881)">19.4</text>
     </g>
    </g>
    <g id="ytick_4">
     <g id="line2d_13">
      <g>
       <use xlink:href="#md08641644e" x="60.03" y="374.957082" style="stroke: #000000; stroke-width: 0.8"/>
      </g>
     </g>
     <g id="text_13">
      <text style="font: 16px 'sans-serif'; text-anchor: end" x="53.03" y="381.035832" transform="rotate(-0, 53.03, 381.035832)">19.6</text>
     </g>
    </g>
    <g id="ytick_5">
     <g id="line2d_14">
      <g>
       <use xlink:href="#md08641644e" x="60.03" y="281.188033" style="stroke: #000000; stroke-width: 0.8"/>
      </g>
     </g>
     <g id="text_14">
      <text style="font: 16px 'sans-serif'; text-anchor: end" x="53.03" y="287.266783" transform="rotate(-0, 53.03, 287.266783)">19.8</text>
     </g>
    </g>
    <g id="ytick_6">
     <g id="line2d_15">
      <g>
       <use xlink:href="#md08641644e" x="60.03" y="187.418983" style="stroke: #000000; stroke-width: 0.8"/>
      </g>
     </g>
     <g id="text_15">
      <text style="font: 16px 'sans-serif'; text-anchor: end" x="53.03" y="193.497733" transform="rotate(-0, 53.03, 193.497733)">20.0</text>
     </g>
    </g>
    <g id="ytick_7">
     <g id="line2d_16">
      <g>
       <use xlink:href="#md08641644e" x="60.03" y="93.649934" style="stroke: #000000; stroke-width: 0.8"/>
      </g>
     </g>
     <g id="text_16">
      <text style="font: 16px 'sans-serif'; text-anchor: end" x="53.03" y="99.728684" transform="rotate(-0, 53.03, 99.728684)">20.2</text>
     </g>
    </g>
   </g>
   <g id="line2d_17">
    <path d="M 89.243182 578.058647 
L 95.144835 573.763962 
L 101.046488 569.469277 
L 106.94814 565.174591 
L 112.849793 560.879906 
L 118.751446 556.58522 
L 124.653099 552.290535 
L 130.554752 547.99585 
L 136.456405 543.701164 
L 142.358058 539.406479 
L 148.259711 535.111793 
L 154.161364 530.817108 
L 160.063017 526.522423 
L 165.964669 522.227737 
L 171.866322 517.933052 
L 177.767975 513.638366 
L 183.669628 509.343681 
L 189.571281 505.048996 
L 195.472934 500.75431 
L 201.374587 496.459625 
L 207.27624 492.164939 
L 213.177893 487.870254 
L 219.079545 483.575569 
L 224.981198 479.280883 
L 230.882851 474.986198 
L 236.784504 470.691513 
L 242.686157 466.396827 
L 248.58781 462.102142 
L 254.489463 457.807456 
L 260.391116 453.512771 
L 266.292769 449.218086 
L 272.194421 444.9234 
L 278.096074 440.628715 
L 283.997727 436.334029 
L 289.89938 432.039344 
L 295.801033 427.744659 
L 301.702686 423.449973 
L 307.604339 419.155288 
L 313.505992 414.860602 
L 319.407645 410.565917 
L 325.309298 406.271232 
L 331.21095 401.976546 
L 337.112603 397.681861 
L 343.014256 393.387175 
L 348.915909 389.09249 
L 354.817562 384.797805 
L 360.719215 380.503119 
L 366.620868 376.208434 
L 372.522521 371.913748 
L 378.424174 367.619063 
L 384.325826 363.324378 
L 390.227479 359.029692 
L 396.129132 354.735007 
L 402.030785 350.440321 
L 407.932438 346.145636 
L 413.834091 341.850951 
L 419.735744 337.556265 
L 425.637397 333.26158 
L 431.53905 328.966894 
L 437.440702 324.672209 
L 443.342355 320.377524 
L 449.244008 316.082838 
L 455.145661 311.788153 
L 461.047314 307.493467 
L 466.948967 303.198782 
L 472.85062 298.904097 
L 478.752273 294.609411 
L 484.653926 290.314726 
L 490.555579 286.02004 
L 496.457231 281.725355 
L 502.358884 277.43067 
L 508.260537 273.135984 
L 514.16219 268.841299 
L 520.063843 264.546613 
L 525.965496 260.251928 
L 531.867149 255.957243 
L 537.768802 251.662557 
L 543.670455 247.367872 
L 549.572107 243.073186 
L 555.47376 238.778501 
L 561.375413 234.483816 
L 567.277066 230.18913 
L 573.178719 225.894445 
L 579.080372 221.599759 
L 584.982025 217.305074 
L 590.883678 213.010389 
L 596.785331 208.715703 
L 602.686983 204.421018 
L 608.588636 200.126332 
L 614.490289 195.831647 
L 620.391942 191.536962 
L 626.293595 187.242276 
L 632.195248 182.947591 
L 638.096901 178.652906 
L 643.998554 174.35822 
L 649.900207 170.063535 
L 655.80186 165.768849 
L 661.703512 161.474164 
L 667.605165 157.179479 
L 673.506818 152.884793 
" clip-path="url(#pff28462e9a)" style="fill: none; stroke: #0000ff; stroke-width: 2.25; stroke-linecap: square"/>
   </g>
   <g id="patch_3">
    <path d="M 60.03 680.72 
L 60.03 38.28 
" style="fill: none; stroke: #000000; stroke-width: 0.8; stroke-linejoin: miter; stroke-linecap: square"/>
   </g>
   <g id="patch_4">
    <path d="M 702.72 680.72 
L 702.72 38.28 
" style="fill: none; stroke: #000000; stroke-width: 0.8; stroke-linejoin: miter; stroke-linecap: square"/>
   </g>
   <g id="patch_5">
    <path d="M 60.03 680.72 
L 702.72 680.72 
" style="fill: none; stroke: #000000; stroke-width: 0.8; stroke-linejoin: miter; stroke-linecap: square"/>
   </g>
   <g id="patch_6">
    <path d="M 60.03 38.28 
L 702.72 38.28 
" style="fill: none; stroke: #000000; stroke-width: 0.8; stroke-linejoin: miter; stroke-linecap: square"/>
   </g>
   <g id="text_17">
    <text style="font: 19.2px 'sans-serif'; text-anchor: middle" x="381.375" y="32.28" transform="rotate(-0, 381.375, 32.28)">Exponential step for growth rate calculations for 5U</text>
   </g>
   <g id="legend_1">
    <g id="patch_7">
     <path d="M 476.8225 74.565 
L 691.52 74.565 
Q 694.72 74.565 694.72 71.365 
L 694.72 49.48 
Q 694.72 46.28 691.52 46.28 
L 476.8225 46.28 
Q 473.6225 46.28 473.6225 49.48 
L 473.6225 71.365 
Q 473.6225 74.565 476.8225 74.565 
z
" style="fill: #ffffff; opacity: 0.8; stroke: #cccccc; stroke-linejoin: miter"/>
    </g>
    <g id="line2d_18">
     <path d="M 480.0225 59.2375 
L 496.0225 59.2375 
L 512.0225 59.2375 
" style="fill: none; stroke: #0000ff; stroke-width: 2.25; stroke-linecap: square"/>
    </g>
    <g id="text_18">
     <text style="font: 16px 'sans-serif'; text-anchor: start" x="524.8225" y="64.8375" transform="rotate(-0, 524.8225, 64.8375)">y=8.35982x+-159.9</text>
    </g>
   </g>
  </g>
 </g>
 <defs>
  <clipPath id="pff28462e9a">
   <rect x="60.03" y="38.28" width="642.69" height="642.44"/>
  </clipPath>
 </defs>
</svg>
