<?xml version="1.0" encoding="utf-8" standalone="no"?>
<!DOCTYPE svg PUBLIC "-//W3C//DTD SVG 1.1//EN"
  "http://www.w3.org/Graphics/SVG/1.1/DTD/svg11.dtd">
<svg xmlns:xlink="http://www.w3.org/1999/xlink" width="720pt" height="360pt" viewBox="0 0 720 360" xmlns="http://www.w3.org/2000/svg" version="1.1">
 <metadata>
  <rdf:RDF xmlns:dc="http://purl.org/dc/elements/1.1/" xmlns:cc="http://creativecommons.org/ns#" xmlns:rdf="http://www.w3.org/1999/02/22-rdf-syntax-ns#">
   <cc:Work>
    <dc:type rdf:resource="http://purl.org/dc/dcmitype/StillImage"/>
    <dc:date>2022-07-11T09:51:58.965901</dc:date>
    <dc:format>image/svg+xml</dc:format>
    <dc:creator>
     <cc:Agent>
      <dc:title>Matplotlib v3.5.2, https://matplotlib.org/</dc:title>
     </cc:Agent>
    </dc:creator>
   </cc:Work>
  </rdf:RDF>
 </metadata>
 <defs>
  <style type="text/css">*{stroke-linejoin: round; stroke-linecap: butt}</style>
 </defs>
 <g id="figure_1">
  <g id="patch_1">
   <path d="M 0 360 
L 720 360 
L 720 0 
L 0 0 
L 0 360 
z
" style="fill: none"/>
  </g>
  <g id="axes_1">
   <g id="patch_2">
    <path d="M 90 315 
L 648 315 
L 648 43.2 
L 90 43.2 
z
" style="fill: #ffffff"/>
   </g>
   <g id="matplotlib.axis_1">
    <g id="xtick_1">
     <g id="line2d_1">
      <defs>
       <path id="m3f2157dcfd" d="M 0 0 
L 0 3.5 
" style="stroke: #000000; stroke-width: 0.8"/>
      </defs>
      <g>
       <use xlink:href="#m3f2157dcfd" x="121.402597" y="315" style="stroke: #000000; stroke-width: 0.8"/>
      </g>
     </g>
     <g id="text_1">
      <text style="font: 10px 'sans-serif'; text-anchor: middle" x="121.402597" y="329.598437" transform="rotate(-0, 121.402597, 329.598437)">22</text>
     </g>
    </g>
    <g id="xtick_2">
     <g id="line2d_2">
      <g>
       <use xlink:href="#m3f2157dcfd" x="242.181818" y="315" style="stroke: #000000; stroke-width: 0.8"/>
      </g>
     </g>
     <g id="text_2">
      <text style="font: 10px 'sans-serif'; text-anchor: middle" x="242.181818" y="329.598437" transform="rotate(-0, 242.181818, 329.598437)">23</text>
     </g>
    </g>
    <g id="xtick_3">
     <g id="line2d_3">
      <g>
       <use xlink:href="#m3f2157dcfd" x="362.961039" y="315" style="stroke: #000000; stroke-width: 0.8"/>
      </g>
     </g>
     <g id="text_3">
      <text style="font: 10px 'sans-serif'; text-anchor: middle" x="362.961039" y="329.598437" transform="rotate(-0, 362.961039, 329.598437)">24</text>
     </g>
    </g>
    <g id="xtick_4">
     <g id="line2d_4">
      <g>
       <use xlink:href="#m3f2157dcfd" x="483.74026" y="315" style="stroke: #000000; stroke-width: 0.8"/>
      </g>
     </g>
     <g id="text_4">
      <text style="font: 10px 'sans-serif'; text-anchor: middle" x="483.74026" y="329.598437" transform="rotate(-0, 483.74026, 329.598437)">25</text>
     </g>
    </g>
    <g id="xtick_5">
     <g id="line2d_5">
      <g>
       <use xlink:href="#m3f2157dcfd" x="604.519481" y="315" style="stroke: #000000; stroke-width: 0.8"/>
      </g>
     </g>
     <g id="text_5">
      <text style="font: 10px 'sans-serif'; text-anchor: middle" x="604.519481" y="329.598437" transform="rotate(-0, 604.519481, 329.598437)">26</text>
     </g>
    </g>
    <g id="text_6">
     <text style="font: 10px 'sans-serif'; text-anchor: middle" x="369" y="343.276563" transform="rotate(-0, 369, 343.276563)">Temperature, Celsius</text>
    </g>
   </g>
   <g id="matplotlib.axis_2">
    <g id="ytick_1">
     <g id="line2d_6">
      <defs>
       <path id="mabe865941e" d="M 0 0 
L -3.5 0 
" style="stroke: #000000; stroke-width: 0.8"/>
      </defs>
      <g>
       <use xlink:href="#mabe865941e" x="90" y="302.663671" style="stroke: #000000; stroke-width: 0.8"/>
      </g>
     </g>
     <g id="text_7">
      <text style="font: 10px 'sans-serif'; text-anchor: end" x="83" y="306.46289" transform="rotate(-0, 83, 306.46289)">0.0</text>
     </g>
    </g>
    <g id="ytick_2">
     <g id="line2d_7">
      <g>
       <use xlink:href="#mabe865941e" x="90" y="259.461913" style="stroke: #000000; stroke-width: 0.8"/>
      </g>
     </g>
     <g id="text_8">
      <text style="font: 10px 'sans-serif'; text-anchor: end" x="83" y="263.261132" transform="rotate(-0, 83, 263.261132)">0.1</text>
     </g>
    </g>
    <g id="ytick_3">
     <g id="line2d_8">
      <g>
       <use xlink:href="#mabe865941e" x="90" y="216.260156" style="stroke: #000000; stroke-width: 0.8"/>
      </g>
     </g>
     <g id="text_9">
      <text style="font: 10px 'sans-serif'; text-anchor: end" x="83" y="220.059374" transform="rotate(-0, 83, 220.059374)">0.2</text>
     </g>
    </g>
    <g id="ytick_4">
     <g id="line2d_9">
      <g>
       <use xlink:href="#mabe865941e" x="90" y="173.058398" style="stroke: #000000; stroke-width: 0.8"/>
      </g>
     </g>
     <g id="text_10">
      <text style="font: 10px 'sans-serif'; text-anchor: end" x="83" y="176.857616" transform="rotate(-0, 83, 176.857616)">0.3</text>
     </g>
    </g>
    <g id="ytick_5">
     <g id="line2d_10">
      <g>
       <use xlink:href="#mabe865941e" x="90" y="129.85664" style="stroke: #000000; stroke-width: 0.8"/>
      </g>
     </g>
     <g id="text_11">
      <text style="font: 10px 'sans-serif'; text-anchor: end" x="83" y="133.655858" transform="rotate(-0, 83, 133.655858)">0.4</text>
     </g>
    </g>
    <g id="ytick_6">
     <g id="line2d_11">
      <g>
       <use xlink:href="#mabe865941e" x="90" y="86.654882" style="stroke: #000000; stroke-width: 0.8"/>
      </g>
     </g>
     <g id="text_12">
      <text style="font: 10px 'sans-serif'; text-anchor: end" x="83" y="90.454101" transform="rotate(-0, 83, 90.454101)">0.5</text>
     </g>
    </g>
    <g id="ytick_7">
     <g id="line2d_12">
      <g>
       <use xlink:href="#mabe865941e" x="90" y="43.453124" style="stroke: #000000; stroke-width: 0.8"/>
      </g>
     </g>
     <g id="text_13">
      <text style="font: 10px 'sans-serif'; text-anchor: end" x="83" y="47.252343" transform="rotate(-0, 83, 47.252343)">0.6</text>
     </g>
    </g>
    <g id="text_14">
     <text style="font: 10px 'sans-serif'; text-anchor: middle" x="61.017187" y="179.1" transform="rotate(-90, 61.017187, 179.1)">Density</text>
    </g>
   </g>
   <g id="line2d_13">
    <path d="M 115.363636 302.645455 
L 134.151515 302.494163 
L 143.291564 302.219824 
L 149.892711 301.817141 
L 154.970516 301.311197 
L 159.540541 300.64423 
L 163.602785 299.826833 
L 167.157248 298.892393 
L 170.711712 297.70879 
L 173.758395 296.460774 
L 176.805078 294.964641 
L 179.851761 293.18876 
L 182.390663 291.472473 
L 184.929566 289.522566 
L 187.468468 287.322672 
L 190.007371 284.85813 
L 192.546274 282.116556 
L 195.085176 279.08844 
L 198.131859 275.068211 
L 201.178542 270.624076 
L 204.225225 265.762751 
L 207.271908 260.501384 
L 210.826372 253.895753 
L 214.888616 245.810423 
L 219.45864 236.185997 
L 227.583129 218.405315 
L 233.676495 205.281999 
L 237.738739 197.00745 
L 241.293202 190.250733 
L 244.339885 184.905491 
L 247.386568 180.032889 
L 249.925471 176.366342 
L 252.464373 173.07868 
L 255.003276 170.182408 
L 257.542179 167.683338 
L 259.573301 165.969775 
L 261.604423 164.506767 
L 263.635545 163.288592 
L 265.666667 162.307286 
L 267.697789 161.552849 
L 269.728911 161.013486 
L 271.760033 160.675854 
L 273.791155 160.525332 
L 276.330057 160.576413 
L 278.86896 160.863273 
L 281.915643 161.472053 
L 284.962326 162.314931 
L 288.51679 163.518639 
L 293.594595 165.488545 
L 304.257985 169.706459 
L 308.82801 171.24507 
L 312.890254 172.373274 
L 316.444717 173.142654 
L 319.999181 173.689925 
L 323.553645 174.004576 
L 327.108108 174.082457 
L 330.662572 173.924958 
L 334.217035 173.538185 
L 337.771499 172.932134 
L 341.325962 172.119846 
L 345.388206 170.958572 
L 349.45045 169.572523 
L 354.020475 167.775767 
L 359.09828 165.523675 
L 364.683866 162.779472 
L 370.269451 159.788502 
L 375.855037 156.56238 
L 381.440622 153.087337 
L 386.518428 149.679778 
L 391.088452 146.372329 
L 395.658477 142.793981 
L 399.720721 139.34824 
L 403.782965 135.618021 
L 407.845209 131.571263 
L 411.907453 127.180391 
L 415.969697 122.42561 
L 420.031941 117.298627 
L 424.094185 111.806765 
L 428.66421 105.227207 
L 433.742015 97.510569 
L 449.990991 72.442628 
L 453.037674 68.288326 
L 455.576577 65.129038 
L 458.115479 62.311608 
L 460.146601 60.346919 
L 462.177723 58.675133 
L 464.208845 57.328922 
L 465.732187 56.552111 
L 467.255528 55.989303 
L 468.77887 55.652882 
L 470.302211 55.554545 
L 471.825553 55.705179 
L 473.348894 56.114737 
L 474.872236 56.792117 
L 476.395577 57.745051 
L 477.918919 58.979998 
L 479.44226 60.502046 
L 480.965602 62.314827 
L 482.488943 64.420441 
L 484.520066 67.684084 
L 486.551188 71.46569 
L 488.58231 75.756625 
L 490.613432 80.542942 
L 493.152334 87.192753 
L 495.691237 94.537695 
L 498.230139 102.517699 
L 501.276822 112.832214 
L 504.831286 125.707768 
L 509.40131 143.217726 
L 525.142506 204.512541 
L 528.69697 217.151539 
L 532.251433 228.961313 
L 535.298116 238.33762 
L 538.344799 246.973697 
L 540.883702 253.584874 
L 543.422604 259.657517 
L 545.961507 265.194747 
L 548.50041 270.207232 
L 551.039312 274.712141 
L 553.578215 278.73204 
L 556.117117 282.293779 
L 558.65602 285.427397 
L 561.194922 288.165093 
L 563.733825 290.540265 
L 566.272727 292.586664 
L 568.81163 294.337657 
L 571.350532 295.825612 
L 573.889435 297.081401 
L 576.936118 298.322586 
L 579.982801 299.317154 
L 583.537265 300.220551 
L 587.091728 300.901281 
L 591.153972 301.467989 
L 596.231777 301.94355 
L 602.325143 302.284339 
L 610.957412 302.519744 
L 622.636364 302.629074 
L 622.636364 302.629074 
" clip-path="url(#pb070748a56)" style="fill: none; stroke: #1f77b4; stroke-width: 1.5; stroke-linecap: square"/>
   </g>
   <g id="patch_3">
    <path d="M 90 315 
L 90 43.2 
" style="fill: none; stroke: #000000; stroke-width: 0.8; stroke-linejoin: miter; stroke-linecap: square"/>
   </g>
   <g id="patch_4">
    <path d="M 648 315 
L 648 43.2 
" style="fill: none; stroke: #000000; stroke-width: 0.8; stroke-linejoin: miter; stroke-linecap: square"/>
   </g>
   <g id="patch_5">
    <path d="M 90 315 
L 648 315 
" style="fill: none; stroke: #000000; stroke-width: 0.8; stroke-linejoin: miter; stroke-linecap: square"/>
   </g>
   <g id="patch_6">
    <path d="M 90 43.2 
L 648 43.2 
" style="fill: none; stroke: #000000; stroke-width: 0.8; stroke-linejoin: miter; stroke-linecap: square"/>
   </g>
   <g id="text_15">
    <text style="font: 12px 'sans-serif'; text-anchor: middle" x="369" y="37.2" transform="rotate(-0, 369, 37.2)">Temperature distribution in the experiment</text>
   </g>
  </g>
 </g>
 <defs>
  <clipPath id="pb070748a56">
   <rect x="90" y="43.2" width="558" height="271.8"/>
  </clipPath>
 </defs>
</svg>
